<?xml version="1.0" encoding="UTF-8" standalone="no"?>
<!DOCTYPE svg PUBLIC "-//W3C//DTD SVG 1.1//EN" "http://www.w3.org/Graphics/SVG/1.1/DTD/svg11.dtd">
<svg version="1.1" xmlns="http://www.w3.org/2000/svg" xmlns:xlink="http://www.w3.org/1999/xlink" preserveAspectRatio="xMidYMid meet" viewBox="0 0 180 180" width="180" height="180"><defs><path d="M188.37 -22.5C193.41 -22.5 197.5 -18.41 197.5 -13.37C197.5 28.81 197.5 146.19 197.5 188.37C197.5 193.41 193.41 197.5 188.37 197.5C146.19 197.5 28.81 197.5 -13.37 197.5C-18.41 197.5 -22.5 193.41 -22.5 188.37C-22.5 146.19 -22.5 28.81 -22.5 -13.37C-22.5 -18.41 -18.41 -22.5 -13.37 -22.5C28.81 -22.5 146.19 -22.5 188.37 -22.5Z" id="bopUOvGOX"></path><path d="M157.87 27.41L159.17 27.6L160.46 27.87L161.74 28.24L163.02 28.68L164.27 29.22L165.5 29.84L166.66 30.53L167.76 31.28L168.8 32.09L169.78 32.96L170.69 33.88L171.53 34.85L172.31 35.86L173.02 36.92L173.66 38.01L174.22 39.14L174.71 40.3L175.13 41.48L175.46 42.68L175.72 43.91L175.9 45.14L176 46.39L176.02 47.64L175.95 48.9L175.79 50.15L175.55 51.4L175.22 52.64L174.8 53.87L174.29 55.08L174.29 55.08L136.47 136.17L135.88 137.35L135.22 138.46L134.49 139.52L133.71 140.53L132.87 141.47L131.99 142.35L131.05 143.17L130.07 143.93L129.04 144.62L127.98 145.24L126.88 145.8L125.76 146.29L124.6 146.71L123.42 147.06L122.23 147.34L121.01 147.54L119.78 147.67L118.54 147.72L117.3 147.7L116.05 147.59L114.8 147.41L113.56 147.14L112.32 146.8L111.1 146.36L109.89 145.85L108.72 145.25L107.6 144.59L106.54 143.87L105.54 143.09L104.6 142.25L103.71 141.36L102.89 140.43L102.14 139.44L101.45 138.42L100.82 137.36L100.26 136.26L99.77 135.13L99.35 133.98L99 132.8L98.73 131.6L98.52 130.39L98.39 129.16L98.34 127.92L98.37 126.67L98.47 125.43L98.66 124.18L98.92 122.94L99.27 121.7L99.7 120.48L100.22 119.27L100.22 119.27L138.03 38.17L138.63 37L139.3 35.89L140.04 34.84L140.84 33.85L141.7 32.93L142.62 32.07L143.59 31.27L144.6 30.55L145.67 29.89L146.77 29.3L147.91 28.79L149.08 28.35L150.28 27.98L151.51 27.69L152.76 27.47L154.02 27.34L155.3 27.28L156.58 27.3L157.87 27.41Z" id="e1ZOctGNtD"></path><clipPath id="clipd2gAc5jNa7"><use xlink:href="#e1ZOctGNtD" opacity="1"></use></clipPath><path d="M82.77 27.47L84.01 27.69L85.24 27.98L86.44 28.35L87.61 28.79L88.75 29.3L89.86 29.89L90.92 30.55L91.94 31.27L92.91 32.07L93.82 32.93L94.69 33.85L95.49 34.84L96.22 35.89L96.89 37L97.49 38.17L97.49 38.17L135.31 119.27L135.31 119.27L135.82 120.48L136.25 121.7L136.6 122.94L136.87 124.18L137.05 125.43L137.16 126.67L137.18 127.92L137.13 129.16L137 130.39L136.8 131.6L136.52 132.8L136.17 133.98L135.75 135.13L135.26 136.26L134.7 137.36L134.08 138.42L133.38 139.44L132.63 140.43L131.81 141.36L130.93 142.25L129.98 143.09L128.98 143.87L127.92 144.59L126.8 145.25L125.63 145.85L124.42 146.36L123.2 146.8L121.96 147.14L120.72 147.41L119.47 147.59L118.23 147.7L116.98 147.72L115.74 147.67L114.51 147.54L113.3 147.34L112.1 147.06L110.92 146.71L109.77 146.29L108.64 145.8L107.54 145.24L106.48 144.62L105.46 143.93L104.47 143.17L103.54 142.35L102.65 141.47L101.81 140.53L101.03 139.52L100.31 138.46L99.65 137.35L99.05 136.17L61.24 55.08L61.24 55.08L60.72 53.87L60.3 52.64L59.97 51.4L59.73 50.15L59.57 48.9L59.51 47.64L59.52 46.39L59.62 45.14L59.8 43.91L60.06 42.68L60.4 41.48L60.81 40.3L61.3 39.14L61.87 38.01L62.5 36.92L63.21 35.86L63.99 34.85L64.83 33.88L65.75 32.96L66.72 32.09L67.76 31.28L68.86 30.53L70.03 29.84L71.25 29.22L72.51 28.68L73.78 28.24L75.06 27.87L76.36 27.6L77.65 27.41L78.94 27.3L80.23 27.28L81.5 27.34L82.77 27.47Z" id="b332VXnk"></path><clipPath id="clipc44L6h2Lj"><use xlink:href="#b332VXnk" opacity="1"></use></clipPath><path d="M3.91 53.87L3.49 52.64L3.16 51.4L2.92 50.15L2.76 48.9L2.69 47.64L2.71 46.39L2.81 45.14L2.99 43.91L3.25 42.68L3.58 41.48L4 40.3L4.49 39.14L5.05 38.01L5.69 36.92L6.4 35.86L7.18 34.85L8.02 33.88L8.93 32.96L9.91 32.09L10.95 31.28L12.05 30.53L13.22 29.84L14.44 29.22L15.7 28.68L16.97 28.24L18.25 27.87L19.54 27.6L20.84 27.41L22.13 27.3L23.41 27.28L24.69 27.34L25.95 27.47L27.2 27.69L28.43 27.98L29.63 28.35L30.8 28.79L31.94 29.3L33.04 29.89L34.11 30.55L35.12 31.27L36.09 32.07L37.01 32.93L37.87 33.85L38.67 34.84L39.41 35.89L40.08 37L40.68 38.17L40.68 38.17L78.49 119.27L78.49 119.27L79.01 120.48L79.44 121.7L79.79 122.94L80.05 124.18L80.24 125.43L80.34 126.67L80.37 127.92L80.32 129.16L80.19 130.39L79.98 131.6L79.71 132.8L79.36 133.98L78.94 135.13L78.45 136.26L77.89 137.36L77.26 138.42L76.57 139.44L75.82 140.43L75 141.36L74.11 142.25L73.17 143.09L72.17 143.87L71.11 144.59L69.99 145.25L68.82 145.85L67.61 146.36L66.39 146.8L65.15 147.14L63.91 147.41L62.66 147.59L61.41 147.7L60.17 147.72L58.93 147.67L57.7 147.54L56.49 147.34L55.29 147.06L54.11 146.71L52.95 146.29L51.83 145.8L50.73 145.24L49.67 144.62L48.64 143.93L47.66 143.17L46.72 142.35L45.84 141.47L45 140.53L44.22 139.52L43.49 138.46L42.83 137.35L42.24 136.17L4.42 55.08L4.43 55.08L3.91 53.87Z" id="e7vxWlwR49"></path><clipPath id="clipacnBgoTkbH"><use xlink:href="#e7vxWlwR49" opacity="1"></use></clipPath></defs><g><g><g><use xlink:href="#bopUOvGOX" opacity="1" fill="#008dff" fill-opacity="0"></use><g><use xlink:href="#bopUOvGOX" opacity="1" fill-opacity="0" stroke="#ffffff" stroke-width="5" stroke-opacity="1"></use></g></g><g><use xlink:href="#e1ZOctGNtD" opacity="1" fill="#e77d0a" fill-opacity="1"></use><g clip-path="url(#clipd2gAc5jNa7)"><use xlink:href="#e1ZOctGNtD" opacity="1" fill-opacity="0" stroke="#ffffff" stroke-width="10" stroke-opacity="1"></use></g></g><g><use xlink:href="#b332VXnk" opacity="1" fill="#020000" fill-opacity="1"></use><g clip-path="url(#clipc44L6h2Lj)"><use xlink:href="#b332VXnk" opacity="1" fill-opacity="0" stroke="#ffffff" stroke-width="10" stroke-opacity="1"></use></g></g><g><use xlink:href="#e7vxWlwR49" opacity="1" fill="#020000" fill-opacity="1"></use><g clip-path="url(#clipacnBgoTkbH)"><use xlink:href="#e7vxWlwR49" opacity="1" fill-opacity="0" stroke="#ffffff" stroke-width="10" stroke-opacity="1"></use></g></g></g></g></svg>