<?xml version="1.0" encoding="UTF-8" standalone="no"?>
<!DOCTYPE svg PUBLIC "-//W3C//DTD SVG 1.1//EN" "http://www.w3.org/Graphics/SVG/1.1/DTD/svg11.dtd">
<svg version="1.1" xmlns="http://www.w3.org/2000/svg" xmlns:xlink="http://www.w3.org/1999/xlink" preserveAspectRatio="xMidYMid meet" viewBox="0 0 236 236" width="236" height="236"><defs><path d="M221.17 4.77C226.21 4.77 230.3 8.86 230.3 13.9C230.3 56.08 230.3 173.47 230.3 215.64C230.3 220.68 226.21 224.77 221.17 224.77C179 224.77 61.61 224.77 19.44 224.77C14.39 224.77 10.3 220.68 10.3 215.64C10.3 173.47 10.3 56.08 10.3 13.9C10.3 8.86 14.39 4.77 19.44 4.77C61.61 4.77 179 4.77 221.17 4.77Z" id="f1EkwqGJBe"></path><path d="M190.68 54.68L191.97 54.87L193.26 55.15L194.54 55.51L195.82 55.96L197.08 56.5L198.3 57.11L199.46 57.8L200.56 58.55L201.6 59.36L202.58 60.23L203.49 61.15L204.34 62.12L205.11 63.14L205.82 64.19L206.46 65.29L207.02 66.41L207.51 67.57L207.93 68.75L208.27 69.96L208.53 71.18L208.71 72.41L208.81 73.66L208.82 74.91L208.75 76.17L208.6 77.42L208.35 78.67L208.02 79.91L207.6 81.14L207.09 82.35L207.09 82.35L169.27 163.45L168.68 164.62L168.02 165.74L167.3 166.8L166.51 167.8L165.68 168.74L164.79 169.62L163.85 170.44L162.87 171.2L161.85 171.89L160.78 172.52L159.69 173.07L158.56 173.56L157.41 173.98L156.23 174.33L155.03 174.61L153.81 174.81L152.58 174.94L151.35 174.99L150.1 174.97L148.85 174.87L147.61 174.68L146.36 174.42L145.13 174.07L143.9 173.64L142.69 173.12L141.52 172.53L140.4 171.87L139.34 171.14L138.34 170.36L137.4 169.52L136.52 168.64L135.7 167.7L134.94 166.72L134.25 165.69L133.62 164.63L133.07 163.53L132.58 162.41L132.16 161.25L131.81 160.07L131.53 158.87L131.33 157.66L131.2 156.43L131.15 155.19L131.17 153.95L131.28 152.7L131.46 151.45L131.72 150.21L132.07 148.97L132.5 147.75L133.02 146.54L170.84 65.44L171.43 64.27L172.1 63.16L172.84 62.11L173.64 61.12L174.5 60.2L175.42 59.34L176.39 58.54L177.41 57.82L178.47 57.16L179.57 56.58L180.71 56.06L181.88 55.62L183.09 55.25L184.31 54.96L185.56 54.74L186.82 54.61L188.1 54.55L189.39 54.58L190.68 54.68Z" id="a35fIi8rd"></path><clipPath id="clipe6KWfrci1"><use xlink:href="#a35fIi8rd" opacity="1"></use></clipPath><path d="M115.57 54.74L116.82 54.96L118.04 55.25L119.24 55.62L120.42 56.06L121.56 56.58L122.66 57.16L123.72 57.82L124.74 58.54L125.71 59.34L126.63 60.2L127.49 61.12L128.29 62.11L129.03 63.16L129.7 64.27L130.29 65.44L130.29 65.44L168.11 146.54L168.11 146.54L168.63 147.75L169.06 148.97L169.4 150.21L169.67 151.45L169.85 152.7L169.96 153.95L169.98 155.19L169.93 156.43L169.8 157.66L169.6 158.87L169.32 160.07L168.97 161.25L168.55 162.41L168.06 163.53L167.51 164.63L166.88 165.69L166.19 166.72L165.43 167.7L164.61 168.64L163.73 169.52L162.79 170.36L161.79 171.14L160.72 171.87L159.61 172.53L158.43 173.12L157.23 173.64L156 174.07L154.77 174.42L153.52 174.68L152.28 174.87L151.03 174.97L149.78 174.99L148.55 174.94L147.32 174.81L146.1 174.61L144.9 174.33L143.72 173.98L142.57 173.56L141.44 173.07L140.35 172.52L139.28 171.89L138.26 171.2L137.28 170.44L136.34 169.62L135.45 168.74L134.61 167.8L133.83 166.8L133.11 165.74L132.45 164.62L131.86 163.45L94.04 82.35L93.53 81.14L93.11 79.91L92.77 78.67L92.53 77.42L92.38 76.17L92.31 74.91L92.32 73.66L92.42 72.41L92.6 71.18L92.86 69.96L93.2 68.75L93.62 67.57L94.11 66.41L94.67 65.29L95.31 64.19L96.01 63.14L96.79 62.12L97.64 61.15L98.55 60.23L99.53 59.36L100.57 58.55L101.67 57.8L102.83 57.11L104.05 56.5L105.31 55.96L106.58 55.51L107.87 55.15L109.16 54.87L110.45 54.68L111.74 54.58L113.03 54.55L114.31 54.61L115.57 54.74Z" id="e1blJAV8zi"></path><clipPath id="clipa1wDv1BeFY"><use xlink:href="#e1blJAV8zi" opacity="1"></use></clipPath><path d="M36.29 79.91L35.96 78.67L35.72 77.42L35.56 76.17L35.5 74.91L35.51 73.66L35.61 72.41L35.79 71.18L36.05 69.96L36.39 68.75L36.8 67.57L37.29 66.41L37.86 65.29L38.49 64.19L39.2 63.14L39.98 62.12L40.82 61.15L41.74 60.23L42.71 59.36L43.75 58.55L44.86 57.8L46.02 57.11L47.24 56.5L48.5 55.96L49.77 55.51L51.06 55.15L52.35 54.87L53.64 54.68L54.93 54.58L56.22 54.55L57.49 54.61L58.76 54.74L60 54.96L61.23 55.25L62.43 55.62L63.6 56.06L64.74 56.58L65.85 57.16L66.91 57.82L67.93 58.54L68.9 59.34L69.81 60.2L70.68 61.12L71.48 62.11L72.21 63.16L72.88 64.27L73.48 65.44L73.48 65.44L111.3 146.54L111.81 147.75L112.24 148.97L112.59 150.21L112.86 151.45L113.04 152.7L113.15 153.95L113.17 155.19L113.12 156.43L112.99 157.66L112.79 158.87L112.51 160.07L112.16 161.25L111.74 162.41L111.25 163.53L110.69 164.63L110.07 165.69L109.38 166.72L108.62 167.7L107.8 168.64L106.92 169.52L105.98 170.36L104.97 171.14L103.91 171.87L102.8 172.53L101.62 173.12L100.41 173.64L99.19 174.07L97.95 174.42L96.71 174.68L95.46 174.87L94.22 174.97L92.97 174.99L91.73 174.94L90.5 174.81L89.29 174.61L88.09 174.33L86.91 173.98L85.76 173.56L84.63 173.07L83.53 172.52L82.47 171.89L81.45 171.2L80.47 170.44L79.53 169.62L78.64 168.74L77.8 167.8L77.02 166.8L76.3 165.74L75.64 164.62L75.04 163.45L37.23 82.35L36.71 81.14L36.29 79.91Z" id="cXAvI6wxv"></path><clipPath id="clipb4M22tIWI"><use xlink:href="#cXAvI6wxv" opacity="1"></use></clipPath></defs><g><g><g><use xlink:href="#f1EkwqGJBe" opacity="1" fill="#008dff" fill-opacity="0"></use><g><use xlink:href="#f1EkwqGJBe" opacity="1" fill-opacity="0" stroke="#ffffff" stroke-width="5" stroke-opacity="1"></use></g></g><g><use xlink:href="#a35fIi8rd" opacity="1" fill="#e77d0a" fill-opacity="1"></use><g clip-path="url(#clipe6KWfrci1)"><use xlink:href="#a35fIi8rd" opacity="1" fill-opacity="0" stroke="#ffffff" stroke-width="10" stroke-opacity="1"></use></g></g><g><use xlink:href="#e1blJAV8zi" opacity="1" fill="#020000" fill-opacity="1"></use><g clip-path="url(#clipa1wDv1BeFY)"><use xlink:href="#e1blJAV8zi" opacity="1" fill-opacity="0" stroke="#ffffff" stroke-width="10" stroke-opacity="1"></use></g></g><g><use xlink:href="#cXAvI6wxv" opacity="1" fill="#020000" fill-opacity="1"></use><g clip-path="url(#clipb4M22tIWI)"><use xlink:href="#cXAvI6wxv" opacity="1" fill-opacity="0" stroke="#ffffff" stroke-width="10" stroke-opacity="1"></use></g></g></g></g></svg>