<?xml version="1.0" encoding="UTF-8" standalone="no"?>
<!DOCTYPE svg PUBLIC "-//W3C//DTD SVG 1.1//EN" "http://www.w3.org/Graphics/SVG/1.1/DTD/svg11.dtd">
<svg version="1.1" xmlns="http://www.w3.org/2000/svg" xmlns:xlink="http://www.w3.org/1999/xlink" preserveAspectRatio="xMidYMid meet" viewBox="0 0 640 640" width="640" height="640"><defs><path d="M207.75 131.75L477.75 131.75L477.75 425.25L207.75 425.25L207.75 131.75Z" id="ipHtESRMc"></path><path d="M440.62 173.1C445.66 173.1 449.75 177.19 449.75 182.24C449.75 224.41 449.75 341.8 449.75 383.97C449.75 389.01 445.66 393.1 440.62 393.1C398.44 393.1 281.06 393.1 238.88 393.1C233.84 393.1 229.75 389.01 229.75 383.97C229.75 341.8 229.75 224.41 229.75 182.24C229.75 177.19 233.84 173.1 238.88 173.1C281.06 173.1 398.44 173.1 440.62 173.1Z" id="a1qRuq0I06"></path><path d="M410.12 223.01L411.42 223.2L412.71 223.48L413.99 223.84L415.27 224.29L416.52 224.83L417.75 225.44L418.91 226.13L420.01 226.88L421.05 227.69L422.03 228.56L422.94 229.48L423.78 230.45L424.56 231.47L425.27 232.52L425.91 233.62L426.47 234.74L426.96 235.9L427.38 237.08L427.71 238.29L427.97 239.51L428.15 240.74L428.25 241.99L428.27 243.24L428.2 244.5L428.04 245.75L427.8 247L427.47 248.24L427.05 249.47L426.54 250.68L426.54 250.68L388.72 331.78L388.13 332.95L387.47 334.07L386.74 335.13L385.96 336.13L385.12 337.07L384.24 337.95L383.3 338.77L382.32 339.53L381.29 340.22L380.23 340.85L379.13 341.4L378.01 341.89L376.85 342.32L375.67 342.66L374.48 342.94L373.26 343.14L372.03 343.27L370.79 343.32L369.55 343.3L368.3 343.2L367.05 343.01L365.81 342.75L364.57 342.4L363.35 341.97L362.14 341.45L360.97 340.86L359.85 340.2L358.79 339.47L357.79 338.69L356.85 337.85L355.96 336.97L355.14 336.03L354.39 335.05L353.7 334.02L353.07 332.96L352.51 331.86L352.02 330.74L351.6 329.58L351.25 328.4L350.98 327.21L350.77 325.99L350.64 324.76L350.59 323.52L350.62 322.28L350.72 321.03L350.91 319.78L351.17 318.54L351.52 317.3L351.95 316.08L352.47 314.87L352.47 314.87L390.28 233.77L390.88 232.6L391.55 231.49L392.29 230.44L393.09 229.45L393.95 228.53L394.87 227.67L395.84 226.88L396.85 226.15L397.92 225.49L399.02 224.91L400.16 224.39L401.33 223.95L402.53 223.58L403.76 223.29L405.01 223.07L406.27 222.94L407.55 222.88L408.83 222.91L410.12 223.01Z" id="bX5fPkJ2U"></path><path d="M312.97 249.47L312.55 248.24L312.22 247L311.98 245.75L311.82 244.5L311.76 243.24L311.77 241.99L311.87 240.74L312.05 239.51L312.31 238.29L312.65 237.08L313.06 235.9L313.55 234.74L314.12 233.62L314.75 232.52L315.46 231.47L316.24 230.45L317.08 229.48L318 228.56L318.97 227.69L320.01 226.88L321.11 226.13L322.28 225.44L323.5 224.83L324.76 224.29L326.03 223.84L327.31 223.48L328.61 223.2L329.9 223.01L331.19 222.91L332.48 222.88L333.75 222.94L335.02 223.07L336.26 223.29L337.49 223.58L338.69 223.95L339.86 224.39L341 224.91L342.11 225.49L343.17 226.15L344.19 226.88L345.16 227.67L346.07 228.53L346.94 229.45L347.74 230.44L348.47 231.49L349.14 232.6L349.74 233.77L349.74 233.78L387.56 314.87L387.56 314.87L388.07 316.08L388.5 317.3L388.85 318.54L389.12 319.78L389.3 321.03L389.41 322.28L389.43 323.52L389.38 324.76L389.25 325.99L389.05 327.21L388.77 328.4L388.42 329.58L388 330.74L387.51 331.86L386.95 332.96L386.33 334.02L385.63 335.05L384.88 336.03L384.06 336.97L383.18 337.85L382.23 338.69L381.23 339.47L380.17 340.2L379.05 340.86L377.88 341.45L376.67 341.97L375.45 342.4L374.21 342.75L372.97 343.01L371.72 343.2L370.48 343.3L369.23 343.32L367.99 343.27L366.76 343.14L365.55 342.94L364.35 342.66L363.17 342.32L362.02 341.89L360.89 341.4L359.79 340.85L358.73 340.22L357.71 339.53L356.72 338.77L355.79 337.95L354.9 337.07L354.06 336.13L353.28 335.13L352.56 334.07L351.9 332.95L351.3 331.78L313.49 250.68L313.49 250.68L312.97 249.47Z" id="b6IvAodpW"></path><path d="M251.16 249.47L250.74 248.24L250.41 247L250.17 245.75L250.01 244.5L249.94 243.24L249.96 241.99L250.06 240.74L250.24 239.51L250.5 238.29L250.83 237.08L251.25 235.9L251.74 234.74L252.3 233.62L252.94 232.52L253.65 231.47L254.43 230.45L255.27 229.48L256.18 228.56L257.16 227.69L258.2 226.88L259.3 226.13L260.47 225.44L261.69 224.83L262.95 224.29L264.22 223.84L265.5 223.48L266.79 223.2L268.09 223.01L269.38 222.91L270.66 222.88L271.94 222.94L273.2 223.07L274.45 223.29L275.68 223.58L276.88 223.95L278.05 224.39L279.19 224.91L280.29 225.49L281.36 226.15L282.37 226.88L283.34 227.67L284.26 228.53L285.12 229.45L285.92 230.44L286.66 231.49L287.33 232.6L287.93 233.77L287.93 233.78L325.74 314.87L325.74 314.87L326.26 316.08L326.69 317.3L327.04 318.54L327.3 319.78L327.49 321.03L327.59 322.28L327.62 323.52L327.57 324.76L327.44 325.99L327.23 327.21L326.96 328.4L326.61 329.58L326.19 330.74L325.7 331.86L325.14 332.96L324.51 334.02L323.82 335.05L323.07 336.03L322.25 336.97L321.36 337.85L320.42 338.69L319.42 339.47L318.36 340.2L317.24 340.86L316.07 341.45L314.86 341.97L313.64 342.4L312.4 342.75L311.16 343.01L309.91 343.2L308.66 343.3L307.42 343.32L306.18 343.27L304.95 343.14L303.74 342.94L302.54 342.66L301.36 342.32L300.2 341.89L299.08 341.4L297.98 340.85L296.92 340.22L295.89 339.53L294.91 338.77L293.97 337.95L293.09 337.07L292.25 336.13L291.47 335.13L290.74 334.07L290.08 332.95L289.49 331.78L251.67 250.68L251.68 250.68L251.16 249.47Z" id="e199UBYmz7"></path></defs><g><g><g><use xlink:href="#ipHtESRMc" opacity="1" fill="#ffffff" fill-opacity="0"></use></g><g><use xlink:href="#a1qRuq0I06" opacity="1" fill="#008dff" fill-opacity="0"></use><g><use xlink:href="#a1qRuq0I06" opacity="1" fill-opacity="0" stroke="#ffffff" stroke-width="5" stroke-opacity="1"></use></g></g><g><use xlink:href="#bX5fPkJ2U" opacity="1" fill="#e77d0a" fill-opacity="1"></use><g><use xlink:href="#bX5fPkJ2U" opacity="1" fill-opacity="0" stroke="#ffffff" stroke-width="3" stroke-opacity="1"></use></g></g><g><use xlink:href="#b6IvAodpW" opacity="1" fill="#020000" fill-opacity="1"></use><g><use xlink:href="#b6IvAodpW" opacity="1" fill-opacity="0" stroke="#ffffff" stroke-width="3" stroke-opacity="1"></use></g></g><g><use xlink:href="#e199UBYmz7" opacity="1" fill="#020000" fill-opacity="1"></use><g><use xlink:href="#e199UBYmz7" opacity="1" fill-opacity="0" stroke="#ffffff" stroke-width="3" stroke-opacity="1"></use></g></g></g></g></svg>