<?xml version="1.0" encoding="UTF-8" standalone="no"?>
<!DOCTYPE svg PUBLIC "-//W3C//DTD SVG 1.1//EN" "http://www.w3.org/Graphics/SVG/1.1/DTD/svg11.dtd">
<svg version="1.1" xmlns="http://www.w3.org/2000/svg" xmlns:xlink="http://www.w3.org/1999/xlink" preserveAspectRatio="xMidYMid meet" viewBox="0 0 640 640" width="640" height="640"><defs><path d="M440.62 173.1C445.66 173.1 449.75 177.19 449.75 182.24C449.75 224.41 449.75 341.8 449.75 383.97C449.75 389.01 445.66 393.1 440.62 393.1C398.44 393.1 281.06 393.1 238.88 393.1C233.84 393.1 229.75 389.01 229.75 383.97C229.75 341.8 229.75 224.41 229.75 182.24C229.75 177.19 233.84 173.1 238.88 173.1C281.06 173.1 398.44 173.1 440.62 173.1Z" id="a1qRuq0I06"></path><path d="M386.74 335.13L385.96 336.13L385.12 337.07L384.24 337.95L383.3 338.77L382.32 339.53L381.29 340.22L380.23 340.85L379.13 341.4L378.01 341.89L376.85 342.32L375.67 342.66L374.48 342.94L373.26 343.14L372.03 343.27L370.79 343.32L369.55 343.3L368.3 343.2L367.05 343.01L365.81 342.75L364.57 342.4L363.35 341.97L362.14 341.45L360.97 340.86L359.85 340.2L358.79 339.47L357.79 338.69L356.85 337.85L355.96 336.97L355.14 336.03L354.39 335.05L353.7 334.02L353.07 332.96L352.51 331.86L352.02 330.74L351.6 329.58L351.25 328.4L350.98 327.21L350.77 325.99L350.64 324.76L350.59 323.52L350.62 322.28L350.72 321.03L350.91 319.78L351.17 318.54L351.52 317.3L351.95 316.08L352.47 314.87L352.47 314.87L390.28 233.77L390.88 232.6L391.55 231.49L392.29 230.44L393.09 229.45L393.95 228.53L394.87 227.67L395.84 226.88L396.85 226.15L397.92 225.49L399.02 224.91L400.16 224.39L401.33 223.95L402.53 223.58L403.76 223.29L405.01 223.07L406.27 222.94L407.55 222.88L408.83 222.91L410.12 223.01L411.42 223.2L412.71 223.48L413.99 223.84L415.27 224.29L416.52 224.83L417.75 225.44L418.91 226.13L420.01 226.88L421.05 227.69L422.03 228.56L422.94 229.48L423.78 230.45L424.56 231.47L425.27 232.52L425.91 233.62L426.47 234.74L426.96 235.9L427.38 237.08L427.71 238.29L427.97 239.51L428.15 240.74L428.25 241.99L428.27 243.24L428.2 244.5L428.04 245.75L427.8 247L427.47 248.24L427.05 249.47L426.54 250.68L426.54 250.68L388.72 331.78L388.13 332.95L387.47 334.07L386.74 335.13Z" id="a1JPmsu6LN"></path><clipPath id="clipa16LY0Uxis"><use xlink:href="#a1JPmsu6LN" opacity="1"></use></clipPath><path d="M312.97 249.47L312.55 248.24L312.22 247L311.98 245.75L311.82 244.5L311.76 243.24L311.77 241.99L311.87 240.74L312.05 239.51L312.31 238.29L312.65 237.08L313.06 235.9L313.55 234.74L314.12 233.62L314.75 232.52L315.46 231.47L316.24 230.45L317.08 229.48L318 228.56L318.97 227.69L320.01 226.88L321.11 226.13L322.28 225.44L323.5 224.83L324.76 224.29L326.03 223.84L327.31 223.48L328.61 223.2L329.9 223.01L331.19 222.91L332.48 222.88L333.75 222.94L335.02 223.07L336.26 223.29L337.49 223.58L338.69 223.95L339.86 224.39L341 224.91L342.11 225.49L343.17 226.15L344.19 226.88L345.16 227.67L346.07 228.53L346.94 229.45L347.74 230.44L348.47 231.49L349.14 232.6L349.74 233.77L349.74 233.78L387.56 314.87L387.56 314.87L388.07 316.08L388.5 317.3L388.85 318.54L389.12 319.78L389.3 321.03L389.41 322.28L389.43 323.52L389.38 324.76L389.25 325.99L389.05 327.21L388.77 328.4L388.42 329.58L388 330.74L387.51 331.86L386.95 332.96L386.33 334.02L385.63 335.05L384.88 336.03L384.06 336.97L383.18 337.85L382.23 338.69L381.23 339.47L380.17 340.2L379.05 340.86L377.88 341.45L376.67 341.97L375.45 342.4L374.21 342.75L372.97 343.01L371.72 343.2L370.48 343.3L369.23 343.32L367.99 343.27L366.76 343.14L365.55 342.94L364.35 342.66L363.17 342.32L362.02 341.89L360.89 341.4L359.79 340.85L358.73 340.22L357.71 339.53L356.72 338.77L355.79 337.95L354.9 337.07L354.06 336.13L353.28 335.13L352.56 334.07L351.9 332.95L351.3 331.78L313.49 250.68L313.49 250.68L312.97 249.47Z" id="b2Od3Nb1O7"></path><clipPath id="clipb256mSmFof"><use xlink:href="#b2Od3Nb1O7" opacity="1"></use></clipPath><path d="M256.16 249.47L255.74 248.24L255.41 247L255.17 245.75L255.01 244.5L254.94 243.24L254.96 241.99L255.06 240.74L255.24 239.51L255.5 238.29L255.83 237.08L256.25 235.9L256.74 234.74L257.3 233.62L257.94 232.52L258.65 231.47L259.43 230.45L260.27 229.48L261.18 228.56L262.16 227.69L263.2 226.88L264.3 226.13L265.47 225.44L266.69 224.83L267.95 224.29L269.22 223.84L270.5 223.48L271.79 223.2L273.09 223.01L274.38 222.91L275.66 222.88L276.94 222.94L278.2 223.07L279.45 223.29L280.68 223.58L281.88 223.95L283.05 224.39L284.19 224.91L285.29 225.49L286.36 226.15L287.37 226.88L288.34 227.67L289.26 228.53L290.12 229.45L290.92 230.44L291.66 231.49L292.33 232.6L292.93 233.77L292.93 233.78L330.74 314.87L330.74 314.87L331.26 316.08L331.69 317.3L332.04 318.54L332.3 319.78L332.49 321.03L332.59 322.28L332.62 323.52L332.57 324.76L332.44 325.99L332.23 327.21L331.96 328.4L331.61 329.58L331.19 330.74L330.7 331.86L330.14 332.96L329.51 334.02L328.82 335.05L328.07 336.03L327.25 336.97L326.36 337.85L325.42 338.69L324.42 339.47L323.36 340.2L322.24 340.86L321.07 341.45L319.86 341.97L318.64 342.4L317.4 342.75L316.16 343.01L314.91 343.2L313.66 343.3L312.42 343.32L311.18 343.27L309.95 343.14L308.74 342.94L307.54 342.66L306.36 342.32L305.2 341.89L304.08 341.4L302.98 340.85L301.92 340.22L300.89 339.53L299.91 338.77L298.97 337.95L298.09 337.07L297.25 336.13L296.47 335.13L295.74 334.07L295.08 332.95L294.49 331.78L256.67 250.68L256.68 250.68L256.16 249.47Z" id="b14SxOBjOL"></path><clipPath id="clipah7aP7mJL"><use xlink:href="#b14SxOBjOL" opacity="1"></use></clipPath></defs><g><g><g><use xlink:href="#a1qRuq0I06" opacity="1" fill="#008dff" fill-opacity="0"></use><g><use xlink:href="#a1qRuq0I06" opacity="1" fill-opacity="0" stroke="#ffffff" stroke-width="5" stroke-opacity="1"></use></g></g><g><use xlink:href="#a1JPmsu6LN" opacity="1" fill="#e77d0a" fill-opacity="1"></use><g clip-path="url(#clipa16LY0Uxis)"><use xlink:href="#a1JPmsu6LN" opacity="1" fill-opacity="0" stroke="#ffffff" stroke-width="10" stroke-opacity="1"></use></g></g><g><use xlink:href="#b2Od3Nb1O7" opacity="1" fill="#020000" fill-opacity="1"></use><g clip-path="url(#clipb256mSmFof)"><use xlink:href="#b2Od3Nb1O7" opacity="1" fill-opacity="0" stroke="#ffffff" stroke-width="10" stroke-opacity="1"></use></g></g><g><use xlink:href="#b14SxOBjOL" opacity="1" fill="#020000" fill-opacity="1"></use><g clip-path="url(#clipah7aP7mJL)"><use xlink:href="#b14SxOBjOL" opacity="1" fill-opacity="0" stroke="#ffffff" stroke-width="10" stroke-opacity="1"></use></g></g></g></g></svg>