<?xml version="1.0" encoding="UTF-8" standalone="no"?>
<!DOCTYPE svg PUBLIC "-//W3C//DTD SVG 1.1//EN" "http://www.w3.org/Graphics/SVG/1.1/DTD/svg11.dtd">
<svg version="1.1" xmlns="http://www.w3.org/2000/svg" xmlns:xlink="http://www.w3.org/1999/xlink" preserveAspectRatio="xMidYMid meet" viewBox="0 0 640 640" width="640" height="640"><defs><path d="M207.75 131.75L477.75 131.75L477.75 425.25L207.75 425.25L207.75 131.75Z" id="dZyPX4wQT"></path><path d="M445.49 173.1C450.53 173.1 454.62 177.19 454.62 182.24C454.62 224.41 454.62 341.8 454.62 383.97C454.62 389.01 450.53 393.1 445.49 393.1C403.31 393.1 285.92 393.1 243.75 393.1C238.71 393.1 234.62 389.01 234.62 383.97C234.62 341.8 234.62 224.41 234.62 182.24C234.62 177.19 238.71 173.1 243.75 173.1C285.92 173.1 403.31 173.1 445.49 173.1Z" id="aefQXVdsT"></path><path d="M410.12 223.01L411.42 223.2L412.71 223.48L413.99 223.84L415.27 224.29L416.52 224.83L417.75 225.44L418.91 226.13L420.01 226.88L421.05 227.69L422.03 228.56L422.94 229.48L423.78 230.45L424.56 231.47L425.27 232.52L425.91 233.62L426.47 234.74L426.96 235.9L427.38 237.08L427.71 238.29L427.97 239.51L428.15 240.74L428.25 241.99L428.27 243.24L428.2 244.5L428.04 245.75L427.8 247L427.47 248.24L427.05 249.47L426.54 250.68L426.54 250.68L388.72 331.78L388.13 332.95L387.47 334.07L386.74 335.13L385.96 336.13L385.12 337.07L384.24 337.95L383.3 338.77L382.32 339.53L381.29 340.22L380.23 340.85L379.13 341.4L378.01 341.89L376.85 342.32L375.67 342.66L374.48 342.94L373.26 343.14L372.03 343.27L370.79 343.32L369.55 343.3L368.3 343.2L367.05 343.01L365.81 342.75L364.57 342.4L363.35 341.97L362.14 341.45L360.97 340.86L359.85 340.2L358.79 339.47L357.79 338.69L356.85 337.85L355.96 336.97L355.14 336.03L354.39 335.05L353.7 334.02L353.07 332.96L352.51 331.86L352.02 330.74L351.6 329.58L351.25 328.4L350.98 327.21L350.77 325.99L350.64 324.76L350.59 323.52L350.62 322.28L350.72 321.03L350.91 319.78L351.17 318.54L351.52 317.3L351.95 316.08L352.47 314.87L352.47 314.87L390.28 233.77L390.88 232.6L391.55 231.49L392.29 230.44L393.09 229.45L393.95 228.53L394.87 227.67L395.84 226.88L396.85 226.15L397.92 225.49L399.02 224.91L400.16 224.39L401.33 223.95L402.53 223.58L403.76 223.29L405.01 223.07L406.27 222.94L407.55 222.88L408.83 222.91L410.12 223.01Z" id="bX5fPkJ2U"></path><path d="M312.97 249.47L312.55 248.24L312.22 247L311.98 245.75L311.82 244.5L311.76 243.24L311.77 241.99L311.87 240.74L312.05 239.51L312.31 238.29L312.65 237.08L313.06 235.9L313.55 234.74L314.12 233.62L314.75 232.52L315.46 231.47L316.24 230.45L317.08 229.48L318 228.56L318.97 227.69L320.01 226.88L321.11 226.13L322.28 225.44L323.5 224.83L324.76 224.29L326.03 223.84L327.31 223.48L328.61 223.2L329.9 223.01L331.19 222.91L332.48 222.88L333.75 222.94L335.02 223.07L336.26 223.29L337.49 223.58L338.69 223.95L339.86 224.39L341 224.91L342.11 225.49L343.17 226.15L344.19 226.88L345.16 227.67L346.07 228.53L346.94 229.45L347.74 230.44L348.47 231.49L349.14 232.6L349.74 233.77L349.74 233.78L387.56 314.87L387.56 314.87L388.07 316.08L388.5 317.3L388.85 318.54L389.12 319.78L389.3 321.03L389.41 322.28L389.43 323.52L389.38 324.76L389.25 325.99L389.05 327.21L388.77 328.4L388.42 329.58L388 330.74L387.51 331.86L386.95 332.96L386.33 334.02L385.63 335.05L384.88 336.03L384.06 336.97L383.18 337.85L382.23 338.69L381.23 339.47L380.17 340.2L379.05 340.86L377.88 341.45L376.67 341.97L375.45 342.4L374.21 342.75L372.97 343.01L371.72 343.2L370.48 343.3L369.23 343.32L367.99 343.27L366.76 343.14L365.55 342.94L364.35 342.66L363.17 342.32L362.02 341.89L360.89 341.4L359.79 340.85L358.73 340.22L357.71 339.53L356.72 338.77L355.79 337.95L354.9 337.07L354.06 336.13L353.28 335.13L352.56 334.07L351.9 332.95L351.3 331.78L313.49 250.68L313.49 250.68L312.97 249.47Z" id="b6IvAodpW"></path><path d="M268.16 249.47L267.74 248.24L267.41 247L267.17 245.75L267.01 244.5L266.94 243.24L266.96 241.99L267.06 240.74L267.24 239.51L267.5 238.29L267.83 237.08L268.25 235.9L268.74 234.74L269.3 233.62L269.94 232.52L270.65 231.47L271.43 230.45L272.27 229.48L273.18 228.56L274.16 227.69L275.2 226.88L276.3 226.13L277.47 225.44L278.69 224.83L279.95 224.29L281.22 223.84L282.5 223.48L283.79 223.2L285.09 223.01L286.38 222.91L287.66 222.88L288.94 222.94L290.2 223.07L291.45 223.29L292.68 223.58L293.88 223.95L295.05 224.39L296.19 224.91L297.29 225.49L298.36 226.15L299.37 226.88L300.34 227.67L301.26 228.53L302.12 229.45L302.92 230.44L303.66 231.49L304.33 232.6L304.93 233.77L304.93 233.78L342.74 314.87L342.74 314.87L343.26 316.08L343.69 317.3L344.04 318.54L344.3 319.78L344.49 321.03L344.59 322.28L344.62 323.52L344.57 324.76L344.44 325.99L344.23 327.21L343.96 328.4L343.61 329.58L343.19 330.74L342.7 331.86L342.14 332.96L341.51 334.02L340.82 335.05L340.07 336.03L339.25 336.97L338.36 337.85L337.42 338.69L336.42 339.47L335.36 340.2L334.24 340.86L333.07 341.45L331.86 341.97L330.64 342.4L329.4 342.75L328.16 343.01L326.91 343.2L325.66 343.3L324.42 343.32L323.18 343.27L321.95 343.14L320.74 342.94L319.54 342.66L318.36 342.32L317.2 341.89L316.08 341.4L314.98 340.85L313.92 340.22L312.89 339.53L311.91 338.77L310.97 337.95L310.09 337.07L309.25 336.13L308.47 335.13L307.74 334.07L307.08 332.95L306.49 331.78L268.67 250.68L268.68 250.68L268.16 249.47Z" id="d5LVwg760s"></path></defs><g><g><g><use xlink:href="#dZyPX4wQT" opacity="1" fill="#008dff" fill-opacity="0.03"></use></g><g><use xlink:href="#aefQXVdsT" opacity="1" fill="#008dff" fill-opacity="0"></use><g><use xlink:href="#aefQXVdsT" opacity="1" fill-opacity="0" stroke="#ffffff" stroke-width="5" stroke-opacity="1"></use></g></g><g><use xlink:href="#bX5fPkJ2U" opacity="1" fill="#e77d0a" fill-opacity="1"></use><g><use xlink:href="#bX5fPkJ2U" opacity="1" fill-opacity="0" stroke="#ffffff" stroke-width="3" stroke-opacity="1"></use></g></g><g><use xlink:href="#b6IvAodpW" opacity="1" fill="#020000" fill-opacity="1"></use><g><use xlink:href="#b6IvAodpW" opacity="1" fill-opacity="0" stroke="#ffffff" stroke-width="3" stroke-opacity="1"></use></g></g><g><use xlink:href="#d5LVwg760s" opacity="1" fill="#020000" fill-opacity="1"></use><g><use xlink:href="#d5LVwg760s" opacity="1" fill-opacity="0" stroke="#ffffff" stroke-width="3" stroke-opacity="1"></use></g></g></g></g></svg>