<?xml version="1.0" encoding="UTF-8" standalone="no"?>
<!DOCTYPE svg PUBLIC "-//W3C//DTD SVG 1.1//EN" "http://www.w3.org/Graphics/SVG/1.1/DTD/svg11.dtd">
<svg version="1.1" xmlns="http://www.w3.org/2000/svg" xmlns:xlink="http://www.w3.org/1999/xlink" preserveAspectRatio="xMidYMid meet" viewBox="0 0 640 640" width="400" height="400"><defs><path d="M509.8 97.45C520.85 97.45 529.8 106.41 529.8 117.45C529.8 159.33 529.8 264.98 529.8 306.86C529.8 317.91 520.85 326.86 509.8 326.86C423.61 326.86 185.02 326.86 98.82 326.86C87.78 326.86 78.82 317.91 78.82 306.86C78.82 264.98 78.82 159.33 78.82 117.45C78.82 106.41 87.78 97.45 98.82 97.45C185.02 97.45 423.61 97.45 509.8 97.45Z" id="cfriJ1d6z"></path><path d="M497.08 108.24C508.65 108.24 518.04 117.62 518.04 129.2C518.04 165.79 518.04 254.6 518.04 291.2C518.04 302.77 508.65 312.16 497.08 312.16C415.78 312.16 192.85 312.16 111.55 312.16C99.97 312.16 90.59 302.77 90.59 291.2C90.59 254.6 90.59 165.79 90.59 129.2C90.59 117.62 99.97 108.24 111.55 108.24C192.85 108.24 415.78 108.24 497.08 108.24Z" id="afb1GHRki"></path><path d="" id="e31fdOdhs"></path><path d="M270.4 250.69L359.03 250.69L359.03 312.16L270.4 312.16L270.4 250.69Z" id="kT9U6JqK"></path><path d="M90.59 108.24L518.04 108.24L518.04 312.16L90.59 312.16L90.59 108.24Z" id="b3NBUpDWK"></path><path d="M312.81 320C317.51 320 321.31 323.81 321.31 328.5C321.31 339.09 321.31 362.38 321.31 372.97C321.31 377.66 317.51 381.47 312.81 381.47C307.71 381.47 300.91 381.47 295.81 381.47C291.12 381.47 287.31 377.66 287.31 372.97C287.31 362.38 287.31 339.09 287.31 328.5C287.31 323.81 291.12 320 295.81 320C300.91 320 307.71 320 312.81 320Z" id="m4cngdyVyT"></path><path d="M369.31 368.47C376.49 368.47 382.31 374.29 382.31 381.47C382.31 384.07 382.31 378.87 382.31 381.47C382.31 388.65 376.49 394.47 369.31 394.47C340.71 394.47 267.91 394.47 239.31 394.47C232.13 394.47 226.31 388.65 226.31 381.47C226.31 378.87 226.31 384.07 226.31 381.47C226.31 374.29 232.13 368.47 239.31 368.47C267.91 368.47 340.71 368.47 369.31 368.47Z" id="bm8ey0Ggl"></path></defs><g><g><g><use xlink:href="#cfriJ1d6z" opacity="1" fill="#000000" fill-opacity="1"></use></g><g><use xlink:href="#afb1GHRki" opacity="1" fill="#ffffff" fill-opacity="1"></use></g><g><g><use xlink:href="#e31fdOdhs" opacity="1" fill-opacity="0" stroke="#000000" stroke-width="1" stroke-opacity="1"></use></g></g><g><use xlink:href="#kT9U6JqK" opacity="1" fill="#ffffff" fill-opacity="1"></use></g><g><use xlink:href="#b3NBUpDWK" opacity="1" fill="#ffffff" fill-opacity="1"></use></g><g><use xlink:href="#m4cngdyVyT" opacity="1" fill="#000000" fill-opacity="1"></use></g><g><use xlink:href="#bm8ey0Ggl" opacity="1" fill="#000000" fill-opacity="1"></use></g></g></g></svg>